<?xml version="1.0" encoding="utf-8"?>
<!-- Generator: Adobe Illustrator 19.0.0, SVG Export Plug-In . SVG Version: 6.00 Build 0)  -->
<svg version="1.1" id="Layer_1" xmlns="http://www.w3.org/2000/svg" xmlns:xlink="http://www.w3.org/1999/xlink" x="0px" y="0px"
	 viewBox="0 0 612 226.1" style="enable-background:new 0 0 612 226.1;" xml:space="preserve">
<style type="text/css">
	.st0{font-family:'MaaxRounded-Medium';}
	.st1{font-size:20.6652px;}
	.st2{opacity:0.6;}
	.st3{fill:#FBD10B;}
	.st4{fill:#16B14C;}
	.st5{fill:#ED8A2E;}
	.st6{fill:#8867AD;}
	.st7{fill:#F1F2F2;}
</style>
<text id="XMLID_1534_" transform="matrix(1.09 0 0 1 6.4287 20.3083)" class="st0 st1"> </text>
<path id="XMLID_929_" class="st2" d="M55.8,135.5l15.3,0c0.6,0,1.1-0.6,1.1-1.3c0-0.7-0.5-1.3-1.1-1.3l-15.3,0
	c-0.6,0-1.1,0.6-1.1,1.3C54.7,135,55.2,135.5,55.8,135.5z"/>
<path id="XMLID_926_" class="st2" d="M55.8,132l15.3,0c0.6,0,1.1-0.6,1.1-1.3c0-0.7-0.5-1.3-1.1-1.3l-1.6,0l-1.7-3.4
	c0,0-0.8-1.1-1.2-1.2c-0.4-0.1-5.1-0.6-6.6,0c0,0-0.7,0.2-1.3,1.3c-0.4,0.8-1.3,2.5-1.7,3.3l-1.2,0c-0.6,0-1.1,0.6-1.1,1.3
	C54.7,131.4,55.2,132,55.8,132z"/>
<path id="XMLID_925_" class="st2" d="M55.9,139.1l15.3,0c0.6,0,1.1-0.6,1.1-1.3c0-0.7-0.5-1.3-1.1-1.3l-15.3,0
	c-0.6,0-1.1,0.6-1.1,1.3C54.8,138.5,55.2,139.1,55.9,139.1z"/>
<path id="XMLID_924_" class="st3" d="M35.2,151.2c1.3,0.6,2.6,1.3,3.9,1.9c0.8,0.4,1.8,0.2,2.2-0.6c0,0,0,0,0,0
	c0.4-0.8,0.2-1.8-0.6-2.2c-1.3-0.6-2.6-1.3-3.9-1.9c-0.7-0.4-1.8-0.2-2.2,0.6c-0.2,0.3-0.2,0.6-0.2,0.9
	C34.4,150.4,34.6,150.9,35.2,151.2z"/>
<path id="XMLID_922_" class="st4" d="M85.9,152.5c0.4,0.8,1.5,1,2.2,0.6c1.3-0.6,2.6-1.3,3.9-1.9c0.5-0.3,0.8-0.8,0.8-1.3
	c0-0.3,0-0.7-0.2-0.9c-0.4-0.8-1.5-1-2.2-0.6c-1.3,0.6-2.6,1.3-3.9,1.9C85.6,150.7,85.5,151.7,85.9,152.5
	C85.8,152.5,85.9,152.5,85.9,152.5z"/>
<path id="XMLID_834_" class="st4" d="M33.9,171.6c1.4-0.3,2.8-0.6,4.2-0.9c0.4-0.1,0.7-0.3,0.9-0.6c0.1-0.2,0.2-0.3,0.2-0.5
	c0.1-0.3,0.1-0.6,0-0.9c0,0,0,0,0-0.1c-0.2-0.8-0.8-1.2-1.4-1.2c-0.2,0-0.4,0-0.6,0c-1.4,0.3-2.8,0.6-4.2,0.9
	C31,169,31.9,172.1,33.9,171.6z"/>
<path id="XMLID_833_" class="st3" d="M87.8,168.9c-0.1,0.7,0.2,1.5,1.1,1.7c1.4,0.3,2.8,0.6,4.2,0.9c0.8,0.2,1.8-0.2,2-1.1
	c0,0,0,0,0-0.1c0.2-0.8-0.2-1.8-1.1-2c-1.4-0.3-2.8-0.6-4.2-0.9C88.7,167.3,88,168.1,87.8,168.9z"/>
<path id="XMLID_830_" class="st5" d="M43.1,188.6C43.1,188.6,43.2,188.6,43.1,188.6c0.7,0.5,1.7,0.8,2.3,0c0.9-1.1,1.8-2.3,2.7-3.4
	c0.6-0.7,0.7-1.6,0-2.3c0,0-0.1-0.1-0.1-0.1c-0.6-0.5-1.7-0.5-2.2,0.1c-0.9,1.1-1.8,2.2-2.7,3.4C42.6,186.9,42.4,188,43.1,188.6z"/>
<path id="XMLID_829_" class="st5" d="M79,185.2c0.9,1.1,1.8,2.3,2.7,3.4c0.6,0.7,1.7,0.5,2.3,0c0,0,0,0,0,0c0.7-0.6,0.5-1.7,0-2.3
	c-0.9-1.1-1.8-2.2-2.7-3.4c-0.3-0.4-0.8-0.5-1.2-0.5c-0.4,0-0.8,0.2-1,0.5c-0.3,0.3-0.4,0.6-0.4,0.9C78.5,184.3,78.7,184.8,79,185.2
	z"/>
<path id="XMLID_828_" class="st6" d="M63.6,195.8C63.6,195.8,63.6,195.8,63.6,195.8c0.9,0,1.7-0.7,1.7-1.6c0-1.4,0-2.9,0-4.3
	c0-0.9-0.7-1.6-1.6-1.6c0,0,0,0,0,0c-0.5,0-0.8,0.2-1.1,0.4c-0.3,0.3-0.6,0.7-0.6,1.2c0,1.4,0,2.9,0,4.3
	C61.9,195.1,62.7,195.8,63.6,195.8z"/>
<g id="XMLID_803_">
	<g id="XMLID_75_">
		<path id="XMLID_81_" class="st4" d="M58.3,161.3c-0.2,0.3-0.2,0.6-0.1,0.7c0.1,0.2,0.2,0.2,0.3,0.2c0.2,0,0.5-0.3,0.7-0.6
			c0.2-0.4,0.2-1,0.1-1.4C58.8,160.6,58.5,160.9,58.3,161.3z"/>
		<path id="XMLID_80_" class="st4" d="M64.9,161.9c-0.1,0.2-0.1,0.7,0,0.8c0,0,0,0.1,0.1,0.1c0,0,0.1,0,0.2-0.1
			c0.3-0.1,0.5-0.4,0.7-0.7c0.3-0.6,0.3-1.2,0.1-1.7c0,0-0.1,0.1-0.1,0.1C65.5,161,65.1,161.4,64.9,161.9z"/>
		<path id="XMLID_79_" class="st4" d="M69.8,155.1c-2.1-4.5-3.9-9.5-5.5-15.2l-2.3,0c-1.5,5.4-3.2,10.1-5.1,14.4
			c1.5,0.7,2.7,2,3.4,3.8c1.1-0.4,2.1-0.6,3.3-0.5c1,0.1,1.8,0.3,2.4,0.7C66.5,157.6,68,156,69.8,155.1z"/>
		<path id="XMLID_78_" class="st4" d="M73.2,157.9c0,0,0.1,0,0.1,0c0.2,0,0.4-0.1,0.5-0.2c0.1-0.3-0.1-0.6-0.2-0.8
			c-0.4-0.5-1.1-0.8-1.6-0.8c0,0-0.1,0-0.1,0c0.1,0.3,0.3,0.5,0.4,0.8C72.4,157.3,72.8,157.8,73.2,157.9z"/>
		<path id="XMLID_77_" class="st4" d="M53.5,157.5L53.5,157.5c0.1,0,0.2-0.1,0.6-0.6l0,0c0.2-0.4,0.4-0.9,0.7-1.4
			c-0.5,0.1-0.9,0.2-1.2,0.5c-0.2,0.2-0.3,0.6-0.3,0.9C53.3,157.3,53.4,157.5,53.5,157.5z"/>
		<path id="XMLID_76_" class="st4" d="M63.6,184.6c11.4,0,20.6-9.3,20.6-20.7c0-8.3-4.9-15.5-12-18.7l0-4c0-0.7-0.5-1.2-1.2-1.2
			l-5.2,0c1.6,5.6,3.3,10.4,5.4,14.8c1.2-0.2,2.2,0.1,3,0.8c0.6,0.5,1.2,1.4,1.1,2.3c0,0.5-0.3,1-0.8,1.3c-0.3,0.2-0.7,0.3-1.1,0.3
			c-1.1,0-2.1-1-2.5-1.9c-0.2-0.3-0.3-0.7-0.5-1c-1.2,0.6-2.4,1.6-3.4,2.8c0.3,0.4,0.5,0.9,0.5,1.4c0.1,0.9-0.3,2.2-1,3
			c-0.7,0.8-1.7,1-2.5,0.4c-0.5-0.3-0.7-0.8-0.8-1.2c-0.1-1.1,0.8-2.3,1.5-3.2c0,0,0.1-0.1,0.1-0.1c-0.2-0.1-0.4-0.2-0.7-0.2
			c-1.2-0.3-2.4-0.2-3.2,0.1c-0.2,0.1-0.3,0.1-0.4,0.2c0.1,0.3,0.1,0.6,0.1,0.9c0.1,1.3-0.2,2.2-1.1,2.9c-0.3,0.3-0.8,0.4-1.2,0.4
			c-0.4,0-0.8-0.1-1.1-0.4c-0.5-0.5-0.7-1.1-0.6-1.7c0.1-1.2,1.3-2.2,1.7-2.5c0.1-0.1,0.3-0.2,0.4-0.3c-0.4-1-1.2-2.6-2.6-3.2
			c-0.3,0.6-0.6,1.3-0.9,1.9c0,0,0,0.1-0.1,0.1c-0.3,0.4-1,1.3-1.8,1.3c-0.3,0-0.6-0.1-0.9-0.4c-0.8-0.7-0.9-2-0.5-2.9
			c0.4-1.1,1.5-1.8,3-1.8c0.2,0,0.3,0,0.5,0c1.9-4.1,3.5-8.7,5-14l-4.3,0c-0.7,0-1.2,0.5-1.2,1.2l0,4c-7.1,3.3-12,10.5-12,18.8
			C42.9,175.3,52.2,184.6,63.6,184.6z"/>
	</g>
</g>
<rect id="XMLID_801_" x="63.1" y="0" class="st2" width="1" height="125.7"/>
<path id="XMLID_403_" class="st7" d="M567,165.9l15.3,0c0.6,0,1.1-0.6,1.1-1.3c0-0.7-0.5-1.3-1.1-1.3l-15.3,0
	c-0.6,0-1.1,0.6-1.1,1.3C565.9,165.3,566.4,165.9,567,165.9z"/>
<path id="XMLID_402_" class="st7" d="M567,162.3l15.3,0c0.6,0,1.1-0.6,1.1-1.3c0-0.7-0.5-1.3-1.1-1.3l-1.6,0l-1.7-3.4
	c0,0-0.8-1.1-1.2-1.2c-0.4-0.1-5.1-0.6-6.6,0c0,0-0.7,0.2-1.3,1.3c-0.4,0.8-1.3,2.5-1.7,3.3l-1.2,0c-0.6,0-1.1,0.6-1.1,1.3
	C565.9,161.8,566.4,162.3,567,162.3z"/>
<path id="XMLID_401_" class="st7" d="M567,169.4l15.3,0c0.6,0,1.1-0.6,1.1-1.3c0-0.7-0.5-1.3-1.1-1.3l-15.3,0
	c-0.6,0-1.1,0.6-1.1,1.3C565.9,168.8,566.4,169.4,567,169.4z"/>
<g id="XMLID_363_">
	<path id="XMLID_400_" class="st7" d="M569.4,191.7c-0.2,0.3-0.2,0.6-0.1,0.7c0.1,0.2,0.2,0.2,0.3,0.2c0.2,0,0.5-0.3,0.7-0.6
		c0.2-0.4,0.2-1,0.1-1.4C570,190.9,569.6,191.3,569.4,191.7z"/>
	<path id="XMLID_398_" class="st7" d="M576,192.3c-0.1,0.2-0.1,0.7,0,0.8c0,0,0,0.1,0.1,0.1c0,0,0.1,0,0.2-0.1
		c0.3-0.1,0.5-0.4,0.7-0.7c0.3-0.6,0.3-1.2,0.1-1.7c0,0-0.1,0.1-0.1,0.1C576.6,191.3,576.3,191.8,576,192.3z"/>
	<path id="XMLID_396_" class="st7" d="M580.9,185.5c-2.1-4.5-3.9-9.5-5.5-15.2l-2.3,0c-1.5,5.4-3.2,10.1-5.1,14.4
		c1.5,0.7,2.7,2,3.4,3.8c1.1-0.4,2.1-0.6,3.3-0.5c1,0.1,1.8,0.3,2.4,0.7C577.7,187.9,579.2,186.3,580.9,185.5z"/>
	<path id="XMLID_395_" class="st7" d="M584.4,188.3c0,0,0.1,0,0.1,0c0.2,0,0.4-0.1,0.5-0.2c0.1-0.3-0.1-0.6-0.2-0.8
		c-0.4-0.5-1.1-0.8-1.6-0.8c0,0-0.1,0-0.1,0c0.1,0.3,0.3,0.5,0.4,0.8C583.6,187.6,583.9,188.2,584.4,188.3z"/>
	<path id="XMLID_366_" class="st7" d="M564.6,187.8L564.6,187.8c0.1,0,0.2-0.1,0.6-0.6l0,0c0.2-0.4,0.4-0.9,0.7-1.4
		c-0.5,0.1-0.9,0.2-1.2,0.5c-0.2,0.2-0.3,0.6-0.3,0.9C564.5,187.6,564.6,187.8,564.6,187.8z"/>
	<path id="XMLID_365_" class="st7" d="M574.8,214.9c11.4,0,20.6-9.3,20.6-20.7c0-8.3-4.9-15.5-12-18.7l0-4c0-0.7-0.5-1.2-1.2-1.2
		l-5.2,0c1.6,5.6,3.3,10.4,5.4,14.8c1.2-0.2,2.2,0.1,3,0.8c0.6,0.5,1.2,1.4,1.1,2.3c0,0.5-0.3,1-0.8,1.3c-0.3,0.2-0.7,0.3-1.1,0.3
		c-1.1,0-2.1-1-2.5-1.9c-0.2-0.3-0.3-0.7-0.5-1c-1.2,0.6-2.4,1.6-3.4,2.8c0.3,0.4,0.5,0.9,0.5,1.4c0.1,0.9-0.3,2.2-1,3
		c-0.7,0.8-1.7,1-2.5,0.4c-0.5-0.3-0.7-0.8-0.8-1.2c-0.1-1.1,0.8-2.3,1.5-3.2c0,0,0.1-0.1,0.1-0.1c-0.2-0.1-0.4-0.2-0.7-0.2
		c-1.2-0.3-2.4-0.2-3.2,0.1c-0.2,0.1-0.3,0.1-0.4,0.2c0.1,0.3,0.1,0.6,0.1,0.9c0.1,1.3-0.2,2.2-1.1,2.9c-0.3,0.3-0.8,0.4-1.2,0.4
		c-0.4,0-0.8-0.1-1.1-0.4c-0.5-0.5-0.7-1.1-0.6-1.7c0.1-1.2,1.3-2.2,1.7-2.5c0.1-0.1,0.3-0.2,0.4-0.3c-0.4-1-1.2-2.6-2.6-3.2
		c-0.3,0.6-0.6,1.3-0.9,1.9c0,0,0,0.1-0.1,0.1c-0.3,0.4-1,1.3-1.8,1.3c-0.3,0-0.6-0.1-0.9-0.4c-0.8-0.7-0.9-2-0.5-2.9
		c0.4-1.1,1.5-1.8,3-1.8c0.2,0,0.3,0,0.5,0c1.9-4.1,3.5-8.7,5-14l-4.3,0c-0.7,0-1.2,0.5-1.2,1.2l0,4c-7.1,3.3-12,10.5-12,18.8
		C554.1,205.7,563.3,214.9,574.8,214.9z"/>
</g>
<rect id="XMLID_311_" x="574" class="st7" width="1" height="155.2"/>
</svg>
