<?xml version="1.0" encoding="utf-8"?>
<!-- Generator: Adobe Illustrator 19.0.0, SVG Export Plug-In . SVG Version: 6.00 Build 0)  -->
<svg version="1.1" id="Layer_1" xmlns="http://www.w3.org/2000/svg" xmlns:xlink="http://www.w3.org/1999/xlink" x="0px" y="0px"
	 viewBox="0 0 46.2 46.4" style="enable-background:new 0 0 46.2 46.4;" xml:space="preserve">
<style type="text/css">
	.st0{fill:#2975BB;}
</style>
<g id="XMLID_157_">
	<g id="XMLID_196_">
		<path id="XMLID_197_" class="st0" d="M23.2,0.7C10.7,0.7,0.7,10.8,0.7,23.2c0,12.4,10.1,22.5,22.5,22.5
			c12.4,0,22.5-10.1,22.5-22.5C45.7,10.8,35.5,0.7,23.2,0.7z M23.2,42.8C12.4,42.8,3.6,34,3.6,23.2c0-10.8,8.8-19.6,19.6-19.6
			c10.8,0,19.5,8.8,19.5,19.6C42.7,34,33.9,42.8,23.2,42.8z"/>
	</g>
</g>
<g id="XMLID_2769_">
	<path id="XMLID_2770_" class="st0" d="M31.7,14.7c-0.3-0.3-0.8-0.3-1,0L19.8,25.5c-0.3,0.3-0.8,0.3-1,0L14,20.7
		c-0.1-0.1-0.3-0.2-0.5-0.2c-0.2,0-0.4,0.1-0.5,0.2l-2.1,1.9c-0.1,0.1-0.2,0.3-0.2,0.5c0,0.2,0.1,0.4,0.2,0.5l4.8,5
		c0.3,0.3,0.8,0.8,1,1l2.1,2.1c0.3,0.3,0.7,0.3,1,0l14-14c0.3-0.3,0.3-0.8,0-1L31.7,14.7z"/>
</g>
</svg>
